<svg fill="currentColor" width="32" height="32" viewBox="0 0 32 32" xmlns="http://www.w3.org/2000/svg">
<path d="M4 4.76h24c0.414 0 0.75-0.336 0.75-0.75s-0.336-0.75-0.75-0.75v0h-24c-0.414 0-0.75 0.336-0.75 0.75s0.336 0.75 0.75 0.75v0zM28 27.25h-24c-0.414 0-0.75 0.336-0.75 0.75s0.336 0.75 0.75 0.75v0h24c0.414 0 0.75-0.336 0.75-0.75s-0.336-0.75-0.75-0.75v0zM28 19.213h-24c-0.414 0-0.75 0.336-0.75 0.75s0.336 0.75 0.75 0.75v0h24c0.414 0 0.75-0.336 0.75-0.75s-0.336-0.75-0.75-0.75v0zM28 11.25h-24c-0.414 0-0.75 0.336-0.75 0.75s0.336 0.75 0.75 0.75v0h24c0.414 0 0.75-0.336 0.75-0.75s-0.336-0.75-0.75-0.75v0z"></path>
</svg>
